<svg id="Group_162" data-name="Group 162" xmlns="http://www.w3.org/2000/svg" xmlns:xlink="http://www.w3.org/1999/xlink" width="267.034" height="43.996" viewBox="0 0 267.034 43.996">
  <defs>
    <clipPath id="clip-path">
      <rect id="Rectangle_547" data-name="Rectangle 547" width="267.034" height="43.996" fill="none"/>
    </clipPath>
  </defs>
  <g id="Group_161" data-name="Group 161" transform="translate(0 0)" clip-path="url(#clip-path)">
    <path id="Path_10" data-name="Path 10" d="M177.5,6.872a.281.281,0,0,1-.231-.148.54.54,0,0,1,.1-.617,1.874,1.874,0,0,1,.772-.481,4.335,4.335,0,0,1,2.65.243,25.242,25.242,0,0,1,5.184,2.463,13.683,13.683,0,0,1,5.154,5.6c1.649,3.5.83,6.97-.067,9.6l-.257.756c-1.418,4.195-4.7,11.944-10.02,12.1-5.117.153-6.091-4.983-6.41-8.669a43.094,43.094,0,0,1,.106-7.27c-1.325,3.339-3.168,7.673-4.609,9.712-.976,1.387-2.312,3.018-3.977,3.318a1.957,1.957,0,0,1-1.9-.675,3.41,3.41,0,0,1-.71-1.732c-.035.051-.069.1-.1.153-.99,1.494-2.643,3.483-5.589,3.483a7.617,7.617,0,0,1-7.8-5.5c-.069.092-.139.185-.206.277-.923,1.228-3.159,3.029-4.965,3.214a4.245,4.245,0,0,1-4.061-1.875c-.985-1.535-.715-3.409-.354-5.2l.391-1.942c-1.008,2.137-2.243,4.2-3.612,5.175a36.2,36.2,0,0,1-4.7,2.939,15.619,15.619,0,0,1-3.339,1.362,8.457,8.457,0,0,1-4.639-.317,6.136,6.136,0,0,1-2.389-1.4,5.892,5.892,0,0,1-1.4-2.268,27.257,27.257,0,0,1-2.81,4.255c-.726.865-1.794,1.818-2.775,1.408l-.257-.1-.169-.338a2.856,2.856,0,0,1,.19-1.7c-.009,0,.615-2.3.807-2.849.111-.31.345-.964.206-1.11s-.243-.143-.294-.141c-.386.046-1.029.7-1.533,1.549-.654,1.105-1.249,2.28-1.822,3.418,0,0-.076.148-.111.134a3.646,3.646,0,0,1-.423.437c-.312.192-.923-.308-.844-.65a2.639,2.639,0,0,1,.224-.543,26.9,26.9,0,0,0,1.681-5.124l.037-.3a20.681,20.681,0,0,0,.192-2.088c.012-.534.039-1.739-.391-2-.361-.217-1.172.229-2.391,1.318a13.835,13.835,0,0,0-2.185,2.518,28.392,28.392,0,0,0-3.459,6.875c-.039.113-.079.227-.116.34-.153.442-.516.162-.863.083a.428.428,0,0,1-.275-.162.714.714,0,0,1-.014-.49l.016-.162c.15-.439.314-.881.488-1.318.372-1.184,1.017-3.062,2.051-6.068l.488-1.415a3.683,3.683,0,0,0,.081-2.25c-.129-.345-.289-.338-.351-.331a.977.977,0,0,0-.763.594c-.148.326-.363.867-.634,1.552-2.359,5.915-4.932,11.537-7.744,12.624a2.463,2.463,0,0,1-2.042-.065c-1.341-.659-1.327-2.271-1.318-3.448,0-.222,0-.43,0-.617-.044-.962-.039-1.924-.035-2.886,0-.444,0-.888-.012-1.334v-.1l-.375.439c-.643.756-1.283,1.51-1.956,2.241-1.249,1.357-2.416,1.966-3.575,1.887a1.5,1.5,0,0,1-1.276-.745c-.567-1,.069-2.553.839-4.081l.076-.153a19.367,19.367,0,0,1,3.469-4.838,12.978,12.978,0,0,1,1.663-1.522,15.865,15.865,0,0,0-6.833.943c-2.377,1-4.322,4.419-5.51,7.152-.356,1.293-.763,2.571-1.221,3.825-.042.116-.086.231-.127.349s-.044.208-.192.21a2.043,2.043,0,0,1-.867-.129c-.222-.111-.146-.338-.167-.555a15.85,15.85,0,0,1,1.371-4.257c.213-.8.409-1.6.583-2.412.044-.2.143-.534.268-.957,1-3.36.96-4.34.749-4.572a7.992,7.992,0,0,0-2.581,1.776c-.194.164-.356.3-.476.4-.324.254-.652.52-.983.786l-.375.305a9.085,9.085,0,0,1-.823,6.276,20.969,20.969,0,0,1-3.318,4.25,7.188,7.188,0,0,1-4.539,2.379c-1.068.1-3.577.358-4.375-1.29-.967-2,.8-4.521,5.411-7.71,1.161-.8,2.312-1.623,3.464-2.444l1.734-1.23c.326-.234.659-.486.994-.747a15.483,15.483,0,0,0-1.085-2.923c-.247.129-.5.254-.752.37-1.126.518-3.323.844-4.461-.111a1.986,1.986,0,0,1-.557-2.523,3.282,3.282,0,0,1,3.409-1.72,4.77,4.77,0,0,1,2.83,2.174A14.307,14.307,0,0,0,80.063,8.054c0-.735-.1-2.5-1.223-3.064a3.2,3.2,0,0,0-2.662.277,15.187,15.187,0,0,0-7.83,7.77l-1.052,2.4a16.773,16.773,0,0,0-.55,1.845q-.277.926-.555,1.848-.541,1.793-1.089,3.589-1.041,3.4-2.109,6.789-1,3.181-2.033,6.345-.975,3-1.982,5.98c-.111.328-.222.657-.335.987a3.073,3.073,0,0,1-.273.719,2.335,2.335,0,0,1-.34.384.262.262,0,0,1-.127.067.943.943,0,0,1-.62-.155.8.8,0,0,1-.074-.863c3.147-9.229,6.361-19.478,10.117-32.254.109-.368.335-.98.613-1.7a35.088,35.088,0,0,1,1.977-5.173l.379-.837.659.284c.571.3.571.3-.763,3.61-.241.6-.5,1.253-.749,1.875a16.439,16.439,0,0,1,6.22-4.713,4.378,4.378,0,0,1,3.765-.245c1.27.636,1.959,2.144,1.945,4.241a15.476,15.476,0,0,1-6.928,12.623A16.836,16.836,0,0,1,75.5,23.371c.3-.24.6-.481.89-.715.111-.086.261-.213.439-.365,1.445-1.223,2.726-2.22,3.681-2.051a1.255,1.255,0,0,1,.869.6c.506.821.28,2.322-.173,4.049a9.382,9.382,0,0,1,3.651-3.233c2.451-1.036,7.314-1.649,9.846-.419a1.107,1.107,0,0,1,.775-.356,1.04,1.04,0,0,1,.955.77c.388.96.183,2.282-.608,3.929a6.973,6.973,0,0,1-1.189,1.674c0,.509,0,1.017.009,1.519.009.456.016.909.014,1.362,0,.941-.012,1.88.03,2.821.009.208.007.439.007.687-.009,1.112.025,1.986.583,2.259a1.19,1.19,0,0,0,.994.021c2.669-1.031,5.7-8.639,7-11.888.282-.71.506-1.27.657-1.6a2.325,2.325,0,0,1,2.012-1.364,1.669,1.669,0,0,1,1.522,1.179,4.929,4.929,0,0,1-.069,3.136l-.178.523a14.034,14.034,0,0,1,1.871-2.067c.9-.8,2.627-2.34,4-1.524,1.089.645,1.052,2.262,1.031,3.131a22.051,22.051,0,0,1-.2,2.238s-.039.3-.046.351a2.526,2.526,0,0,1,1.387-.738,1.593,1.593,0,0,1,1.387.532c.7.728.321,1.794.118,2.366-.18.506-.668,2.287-.844,2.939a2.693,2.693,0,0,0-.1.3,4.813,4.813,0,0,0,.879-.844,32.752,32.752,0,0,0,3.432-5.441l.234-.428c.083-.153.166-.3.247-.453a15.985,15.985,0,0,0,.837-2.093,20.534,20.534,0,0,1,.844-2.148,41.717,41.717,0,0,1,2.68-5.048l.4-.638c1.138-1.871,3.344-5.3,4.888-7.67,3.628-5.566,3.63-5.566,4.2-5.363l.5.173-.092.661c-.423,1.237-.911,2.474-1.452,3.686-.962,2.139-4.172,8.991-7.76,13.516a9.27,9.27,0,0,1,4.1-1.11,3.871,3.871,0,0,1,3.4,2.592,3.823,3.823,0,0,1,.053,1.415,11.837,11.837,0,0,1-3.959,7.471,17.483,17.483,0,0,0,2.435-1.078,34.942,34.942,0,0,0,4.535-2.835c2.356-1.688,4.523-7.758,5.339-10.043.462-1.3.587-1.649,1.2-1.485s.495.8.446,1.068l-1.723,8.549c-.321,1.589-.548,3.106.171,4.232a3.019,3.019,0,0,0,2.828,1.279,7.523,7.523,0,0,0,4.047-2.7c.305-.407.6-.812.89-1.212a11.906,11.906,0,0,1-.046-2.359,54.487,54.487,0,0,1,3.716-16.055l.178-.449c1.008-2.541,2.151-5.423,4.222-7.464A3.774,3.774,0,0,1,159.661.032a3.82,3.82,0,0,1,3.272,1.147,5.444,5.444,0,0,1,1.383,4.451,18.3,18.3,0,0,1-2.694,6.334l-.153.261a62.158,62.158,0,0,1-4.162,6.186c-1.468,1.94-2.715,3.806-3.92,5.61-.823,1.233-1.667,2.5-2.59,3.8a6.98,6.98,0,0,0,1.69,3.575,6.717,6.717,0,0,0,5.106,2c1.781,0,3.166-.893,4.491-2.893.888-1.344,1.762-2.7,2.636-4.054.123-.192.247-.384.37-.573.335-.548.689-1.087,1.045-1.616q.656-1.009,1.32-2.012a23.117,23.117,0,0,1,3.624-4.407c.067-.069.132-.139.2-.206a12.881,12.881,0,0,1,3.311-2.317,2.114,2.114,0,0,1,1.182-.15c.231.037.6.028.541.365-.134.782-.206,1.552-.282,2.34a53.683,53.683,0,0,0-.356,9.733c.421,4.882,2,8.211,5.275,7.483,4.747-1.057,7.236-7.166,8.609-11.224l.257-.756c.819-2.4,1.572-5.541.125-8.616A14.855,14.855,0,0,0,180.3,6.757a3.849,3.849,0,0,0-1.7-.19,7.382,7.382,0,0,0-.768.24.921.921,0,0,1-.338.065M74.67,25.7c-.173.129-.347.257-.518.377l-1.73,1.228c-1.156.823-2.31,1.646-3.478,2.456-5.349,3.7-5.263,5.471-4.976,6.061.4.823,2.333.629,3.066.56a5.9,5.9,0,0,0,3.735-1.993,19.876,19.876,0,0,0,3.117-3.984,7.466,7.466,0,0,0,.784-4.7m91.542.851a16.889,16.889,0,0,0-1.563,3.154,2.705,2.705,0,0,0,.335,2.245.653.653,0,0,0,.673.236c1.35-.245,2.652-2.09,3.143-2.784,1.827-2.592,4.41-9.25,5.568-12.3a5.91,5.91,0,0,0-.844.486,12.279,12.279,0,0,0-1.535,1.193,31.98,31.98,0,0,0-2.41,2.851c-.536.705-1.048,1.429-1.547,2.164l-.259.379c-.18.268-.363.536-.546.807q-.51.78-1.015,1.568M93.967,22.488c-.807.118-1.97,1.327-2.4,1.776a18.275,18.275,0,0,0-3.318,4.592l-.083.162c-1.015,2.016-.98,2.65-.867,2.849.03.055.146.074.236.081.747.081,1.554-.425,2.514-1.468.659-.717,1.288-1.457,1.919-2.2l.643-.754c.217-.254.444-.495.671-.735.019-.021.042-.042.06-.065.012-.342.03-.687.062-1.027l.014-.155a12.013,12.013,0,0,1,.55-3.055M124.8,31.624a4.852,4.852,0,0,0,.476.1,2.316,2.316,0,0,0,1.221-.088c3.071-.65,5.15-4.865,5.411-7.529a2.748,2.748,0,0,0-.014-.948,2.594,2.594,0,0,0-2.16-1.619h-.062a7.653,7.653,0,0,0-3.526,1.027,7.206,7.206,0,0,0-1.924,1.559l-.4.412a23.534,23.534,0,0,0-1.862,4.024,2.56,2.56,0,0,0,.049.842,2.13,2.13,0,0,0,.106.19l-.009.007a4.714,4.714,0,0,0,2.692,2.023M160.17,1.311a2.615,2.615,0,0,0-.349.021,2.559,2.559,0,0,0-1.408.761c-1.875,1.85-2.916,4.477-3.922,7.016l-.178.449a53.2,53.2,0,0,0-3.628,15.671c-.014.169-.023.338-.028.5.567-.826,1.108-1.637,1.642-2.435,1.216-1.82,2.472-3.7,3.966-5.672a61.972,61.972,0,0,0,4.075-6.059l.153-.259a17.064,17.064,0,0,0,2.527-5.864,4.131,4.131,0,0,0-1.024-3.346,2.5,2.5,0,0,0-1.825-.784M95.318,22.65c-.021.046-.042.09-.06.136a7.2,7.2,0,0,0-.43,1.829,4.9,4.9,0,0,0,.49-1.966M130.9,10.087c-1.663,2.56-3.448,5.349-4.41,6.93l-.4.654a31.285,31.285,0,0,0-1.831,3.318,59.408,59.408,0,0,0,6.646-10.9M70.413,18.608a2.1,2.1,0,0,0-1.7,1.052.691.691,0,0,0,.224.937c.622.523,2.262.3,3.076-.074.217-.1.432-.206.643-.319a3.477,3.477,0,0,0-2-1.57,1.042,1.042,0,0,0-.243-.025" transform="translate(74.962 0)" fill="#1a1818"/>
    <path id="Path_11" data-name="Path 11" d="M95.967,4.765a.97.97,0,0,1-.682-.294.788.788,0,0,1-.074-.079l-.053.081a1.178,1.178,0,0,1-.6-.872A1.187,1.187,0,0,1,95.84,2.221a1.275,1.275,0,0,1,.925.481,1.357,1.357,0,0,1-.187,1.813.954.954,0,0,1-.541.247l-.069,0" transform="translate(124.08 2.91)" fill="#1a1818"/>
    <path id="Path_12" data-name="Path 12" d="M43.78,7.616c-.042.044-.086.055.12-.095l.4-.194,1.283-.012a.21.21,0,0,1-.074.183l.023-.028c.028-.035.056-.072.086-.106.095-.116.19-.229.287-.345q.465-.555.937-1.105,1.054-1.242,2.127-2.47c.132-.15.264-.3.4-.446.039-.044.081-.086.12-.129.014-.014.032-.028.046-.044l.009-.009a1.916,1.916,0,0,1-.5.282c-.314.055-.629.111-.943.164l-.282-.076c-.127-.111-.012-.224-.055-.148-.183.314.671.238.77.22.358-.067.9-.192,1.105-.539.079-.132-.042-.213-.153-.247a1.879,1.879,0,0,0-1.112.139,2.083,2.083,0,0,0-.407.2,2.082,2.082,0,0,0-.321.3c-.317.345-.622.7-.93,1.054q-1.211,1.394-2.4,2.81c-.136.16-.271.321-.4.483-.079.095-.24.236-.22.365.023.164.333.155.442.155a2.68,2.68,0,0,0,.842-.164,1.387,1.387,0,0,0,.539-.312c.3-.305-.261-.365-.458-.351a2.094,2.094,0,0,0-1.267.465" transform="translate(57.328 3.19)" fill="#1a1818"/>
    <path id="Path_13" data-name="Path 13" d="M.983,43.486a.667.667,0,0,1-.16-.014c-.314-.069-.65-.016-.793-.358-.123-.294.16-.516.363-.682.347-.289.955-.71,1.956-1.4C3.9,39.953,6,38.505,7.268,37.6c3.892-2.759,7.608-5.908,11.2-8.954a151.331,151.331,0,0,1,12.575-9.916c4.521-3.069,9.289-6.537,13.791-10.027,2.046-1.586,3.994-2.884,6.054-4.262,1.216-.812,2.449-1.633,3.714-2.527C56.941.234,57.447.221,57.836.366l.328.12.153.421c.12.5-.238.969-.684,1.485L57.54,2.5c-.5.641-1.038,1.251-1.575,1.859-.86.971-1.746,1.915-2.634,2.86-.948,1.011-1.9,2.021-2.812,3.064a80.853,80.853,0,0,0-8.4,12.274l-1.295,2.181a21.049,21.049,0,0,0-2.04,4.068,5.659,5.659,0,0,0-.236,3.221,3.928,3.928,0,0,0,3.217,2.782c1.956.229,4.031-.661,4.731-2.03A29.141,29.141,0,0,0,48.376,28.3a11.5,11.5,0,0,1,3.545-5.487c.8-.58,1.459-.687,1.968-.305,1.147.853.21,3.531.146,3.709a10.326,10.326,0,0,1,4.313-3.221,2.249,2.249,0,0,1,1.732-.079,2.036,2.036,0,0,1,1.066,1.709,8.759,8.759,0,0,1-.731,3.152c-.573,1.674-1.288,3.758-.721,4.666.065.106.266.428,1.017.525.7.092,1.452-.46,2.31-1.683.449-.638.883-1.288,1.318-1.935a43.342,43.342,0,0,1,3.667-4.942,15.662,15.662,0,0,1,4.333-3.459c.028-.016.055-.035.083-.053a6.063,6.063,0,0,1,3.73-1.078,2.882,2.882,0,0,1,.9.1A142.958,142.958,0,0,1,82.75,5.77c.009-.021,1.045-2.245,2.162-2.361a.969.969,0,0,1,.911.425.98.98,0,0,1,.171.594,21.913,21.913,0,0,1-1.5,7.06,46.087,46.087,0,0,1-2.583,6.449,41.992,41.992,0,0,1-5.067,7.7,45.569,45.569,0,0,0-.8,4.724c-.106.93,0,1.991.6,2.188.513.162,1.179-.386,1.644-.881a26.46,26.46,0,0,0,5.221-8.1c.229-.55.481-1.105.738-1.66.342-.752.694-1.515.983-2.289a3.814,3.814,0,0,1-.444-.779,4.992,4.992,0,0,1,.095-4.1c.439-.661.916-.913,1.411-.747,1.02.345.946,2.423.92,2.835a10.124,10.124,0,0,1-.49,2.486,2.916,2.916,0,0,0,2.049.724A2.708,2.708,0,0,0,89.4,19.9q.257-.506.53-1c.206-.37,1.036-1.443,1.764-1.443l.388,0,.351.624a2.212,2.212,0,0,1-.555,1.7,4.448,4.448,0,0,1-1.526,1.14A33.079,33.079,0,0,0,87.469,29.7c-.083.467.1,1.237.328,1.35.185.095.747-.176,1.649-.814l.3-.206a15.053,15.053,0,0,0,2.766-2.453c.076-.523.187-1.038.308-1.54,1.022-4.317,2.7-9.62,6.611-12.321.974-.673,1.586-.509,1.933-.252,1.011.749.386,2.819.312,3.052a12.55,12.55,0,0,1-1.577,2.958c-.178.268-.351.532-.511.793-.893,1.448-1.922,2.819-2.914,4.146l-.453.606c-.786,1.052-1.584,2.123-2.463,3.129a6.259,6.259,0,0,0,.053,1.929,2.756,2.756,0,0,0,2.971,2.472,8.006,8.006,0,0,0,2.31-.888c.333-.166.666-.333,1-.483a2.54,2.54,0,0,1,.333-.724c.435-.647.784-1.286,1.154-1.963.171-.314.347-.631.532-.955,7.929-13.886,9.444-13.368,10.091-13.137a.853.853,0,0,1,.576.923l-.5,2.188c-.95,4.146-6.951,12.5-11,14.571a2.6,2.6,0,0,0,.678,1.788,1.9,1.9,0,0,0,2.083.129,4.728,4.728,0,0,0,1.968-1.753q.621-1.034,1.168-1.975a42.6,42.6,0,0,1,2.088-4.079c.342-.613.668-1.193.946-1.727.25-.486.516-.96.775-1.424a18.47,18.47,0,0,0,1.8-5.164l-.042-.4.442-.268.439-.187.312.358a1.062,1.062,0,0,1,.16.437c.206,1.975-.823,3.815-1.919,5.774-.89,1.938-2.139,4.35-3.832,7.27a8.883,8.883,0,0,0-.83,3.522,2.7,2.7,0,0,0,.571,1.831,5.955,5.955,0,0,0,5.67,1.887c7.714-1.385,16.645-14.58,18.735-19.362a10.114,10.114,0,0,0,.28-8.424,10.9,10.9,0,0,0-7-5.568,4.244,4.244,0,0,0-3.078.06,9.5,9.5,0,0,0-1.008.56c-.333.206-.775.49-1.154.208-.6-.446.051-1.066.462-1.32a10.713,10.713,0,0,1,1.152-.636,5.481,5.481,0,0,1,4.01-.123,12.168,12.168,0,0,1,7.807,6.271,11.384,11.384,0,0,1-.268,9.5c-2.241,5.124-11.4,18.636-19.706,20.125a7.26,7.26,0,0,1-6.842-2.268,3.9,3.9,0,0,1-.937-2.7q-.007-.177,0-.354a6.4,6.4,0,0,1-1.591,1.108,3.187,3.187,0,0,1-3.575-.368,3.868,3.868,0,0,1-1.029-2.144l-.34.169a9.153,9.153,0,0,1-2.7,1.013c-2.389.372-4.051-1.485-4.458-3.508a6.548,6.548,0,0,1-.106-.786,14.6,14.6,0,0,1-1.947,1.57L90.2,31.3c-.8.562-2,1.411-2.99.916s-1.159-2.04-1.029-2.756a34.315,34.315,0,0,1,2.523-8.11,4.444,4.444,0,0,1-2.447-.749c-.257.627-.536,1.239-.816,1.845-.247.543-.495,1.082-.715,1.616a27.8,27.8,0,0,1-5.48,8.5c-1.054,1.117-2.065,1.531-3,1.228-1.172-.379-1.72-1.683-1.5-3.582q.153-1.325.379-2.629a39.819,39.819,0,0,1-4.327,3.97c-.779.615-3.154,2.486-4.595,1.152-1.008-.932-.518-2.74-.12-3.563.025-.053.051-.1.079-.155q-.371.545-.735,1.089c-.439.654-.879,1.311-1.332,1.956-.742,1.057-1.912,2.437-3.55,2.229a2.555,2.555,0,0,1-1.963-1.128c-.895-1.441-.1-3.748.594-5.786a9.063,9.063,0,0,0,.668-2.581.846.846,0,0,0-.31-.664,1.257,1.257,0,0,0-.719.111c-3.753,1.431-5.756,5.515-7.518,9.566-.294.592-.451.541-.768.449l-.6-.178.162-.673.18-.423c.275-.745.886-2.493,1.394-3.954.428-1.219.853-2.442,1.159-3.293a4.752,4.752,0,0,0,.289-2.09,1.982,1.982,0,0,0-.419.247,10.312,10.312,0,0,0-3.087,4.872,30.009,30.009,0,0,1-1.942,4.641c-1.1,2.134-3.876,3-6.052,2.729a5.207,5.207,0,0,1-4.327-3.739,6.93,6.93,0,0,1,.257-3.97,22.125,22.125,0,0,1,2.16-4.329L41,21.893A81.97,81.97,0,0,1,49.534,9.424c.923-1.054,1.882-2.077,2.844-3.1.876-.934,1.755-1.871,2.606-2.83.19-.215.377-.428.564-.645l-.109.079c-1.357.96-2.6,1.787-3.825,2.606-2.04,1.364-3.968,2.65-5.978,4.209-4.523,3.506-9.314,6.99-13.858,10.075a150.16,150.16,0,0,0-12.464,9.83C15.7,32.712,11.964,35.88,8.026,38.672c-1.276.9-3.374,2.354-4.93,3.434l-1.346.93c-.141.1-.282.2-.421.294a.647.647,0,0,1-.347.157m72.03-21.413a12.84,12.84,0,0,0-3.355,4.019c-.31.495-.652.969-.994,1.441a14.514,14.514,0,0,0-1.4,2.183c-.34.7-.486,1.739-.171,2.03.148.139.786.446,2.9-1.219a38.937,38.937,0,0,0,5.649-5.485c.28-1.233.606-2.451.964-3.663a1.029,1.029,0,0,0-.52-.252,3.583,3.583,0,0,0-.432.049,9.2,9.2,0,0,0-2.636.9m38.234-5.915c-1.013.971-3.3,3.8-8,12.025-.18.317-.351.627-.518.934-.109.2-.217.4-.328.6,3.395-2.87,7.811-9.053,8.6-12.5Zm-10.665-1.616c-.039.037-.18.092-.407.25-3.263,2.252-4.851,6.674-5.839,10.552q.423-.555.832-1.11l.456-.608c.978-1.3,1.986-2.65,2.849-4.049.166-.271.347-.543.53-.823a11.357,11.357,0,0,0,1.424-2.636,3.24,3.24,0,0,0,.155-1.575m-15.912-9.4A7.228,7.228,0,0,0,83.945,6.3,124.3,124.3,0,0,0,77.66,22.429a40.145,40.145,0,0,0,3.085-5.087,44.673,44.673,0,0,0,2.507-6.264,23.639,23.639,0,0,0,1.418-5.938m1.2,10.542a3.926,3.926,0,0,0-.065,1.97,7.409,7.409,0,0,0,.111-.9,5.776,5.776,0,0,0-.046-1.071" transform="translate(0 0.406)" fill="#1a1818"/>
    <path id="Path_14" data-name="Path 14" d="M1.533,15.907c-.733,0-.763-.15-.819-.414l.643-.132-.023-.652c.564-.037,14.9-1.767,25.36-3.029l10.251-1.235c2.4-.289,3.644-.439,4.294-.442l-.009-.065.012.065c.687-.06.712.16.758.493l-.58.74-.049-.331.023.331c-.3.025-7.219.86-14.543,1.746L9.86,15.029c-5.143.615-7.353.879-8.327.879" transform="translate(0.937 13.044)" fill="#1a1818"/>
  </g>
</svg>
