<?xml version="1.0" encoding="UTF-8"?><svg id="Layer_1" xmlns="http://www.w3.org/2000/svg" xmlns:xlink="http://www.w3.org/1999/xlink" viewBox="0 0 168.5 99.2"><defs><style>.cls-1{fill:url(#linear-gradient);}.cls-1,.cls-2,.cls-3,.cls-4{stroke-width:0px;}.cls-2{fill:url(#linear-gradient-2);}.cls-3{fill:url(#linear-gradient-3);}.cls-4{fill:#231f20;}</style><linearGradient id="linear-gradient" x1="23.18" y1="75.7" x2="127.57" y2="75.7" gradientTransform="translate(0 102) scale(1 -1)" gradientUnits="userSpaceOnUse"><stop offset="0" stop-color="#e5e2df"/><stop offset=".04" stop-color="#d6d3d0"/><stop offset=".13" stop-color="#b0aca9"/><stop offset=".15" stop-color="#a6a29f"/><stop offset=".52" stop-color="#dfe0e1"/><stop offset=".62" stop-color="#d2d2d2"/><stop offset=".82" stop-color="#b1aeab"/><stop offset=".88" stop-color="#a6a29f"/><stop offset="1" stop-color="#d0d2d3"/><stop offset="1" stop-color="#a6a8ab"/></linearGradient><linearGradient id="linear-gradient-2" x1="40.48" y1="51.2" x2="137" y2="51.2" gradientTransform="translate(0 102) scale(1 -1)" gradientUnits="userSpaceOnUse"><stop offset="0" stop-color="#e5e2df"/><stop offset="0" stop-color="#d9d4d0"/><stop offset="0" stop-color="#ccc6c1"/><stop offset=".07" stop-color="#bdb8b4"/><stop offset=".15" stop-color="#a6a29f"/><stop offset=".52" stop-color="#dfe0e1"/><stop offset=".62" stop-color="#d2d2d2"/><stop offset=".82" stop-color="#b1aeab"/><stop offset=".88" stop-color="#a6a29f"/><stop offset="1" stop-color="#d0d2d3"/><stop offset="1" stop-color="#a6a8ab"/></linearGradient><linearGradient id="linear-gradient-3" x1="40.48" y1="51.2" x2="137" y2="51.2" gradientTransform="translate(0 102) scale(1 -1)" gradientUnits="userSpaceOnUse"><stop offset="0" stop-color="#e5e2df"/><stop offset="0" stop-color="#d9d4d0"/><stop offset="0" stop-color="#ccc6c1"/><stop offset=".07" stop-color="#bdb8b4"/><stop offset=".15" stop-color="#a6a29f"/><stop offset=".52" stop-color="#dfe0e1"/><stop offset=".62" stop-color="#d2d2d2"/><stop offset=".82" stop-color="#b1aeab"/><stop offset=".88" stop-color="#a6a29f"/><stop offset="1" stop-color="#d0d2d3"/><stop offset="1" stop-color="#a6a8ab"/></linearGradient></defs><path class="cls-4" d="m11,71.7l-4,10h-.1l-5.3-13.1c-.5-1.4-1-1.9-1.6-2.4h6.5c-.6.4-.9.7-.9,1.3,0,.4.1.7.3,1.2l2.9,7.2,1.9-5-.9-2.3c-.5-1.4-.9-1.9-1.6-2.4h6.4c-.6.4-.9.7-.9,1.3,0,.4.1.7.3,1.2l2.6,7.3,2.7-7.1c.1-.3.2-.6.2-.9,0-.7-.4-1.4-1.2-1.8h3.6c-.7.5-1.4,1.3-1.9,2.6l-5.1,12.9h-.1l-3.8-10Z"/><path class="cls-4" d="m30.1,81.5h-6.5c1-.6,1.2-1.2,1.2-2.6v-10c0-1.5-.2-2-1.2-2.6h6.5c-1,.6-1.2,1.2-1.2,2.6v10c0,1.4.3,1.9,1.2,2.6Z"/><path class="cls-4" d="m46.3,69.5v12.1h-1l-10.8-13.4v9.8c0,1.8.5,2.8,1.8,3.4h-4.2c1.1-.6,1.6-1.6,1.6-3.3v-9.4c0-1.5-.2-2-1.2-2.6h5.6l7.3,9.1v-5.6c0-1.8-.5-2.9-1.8-3.4h4.3c-1.2.6-1.6,1.6-1.6,3.3Z"/><path class="cls-4" d="m60.6,66.1c.7,0,1.2,0,1.5-.2l.7,4.3h0c-1.3-2.2-2.4-3.5-5.2-3.5h-2.5v6.5h2c1.8,0,2.5-.5,3.2-2.5h0v5.5h0c-.7-2-1.4-2.4-3.2-2.4h-2v7h2.9c2.9,0,4.1-1.7,5.4-3.9h0l-.7,4.5h-12.9c1-.6,1.2-1.2,1.2-2.6v-10c0-1.5-.2-2-1.2-2.6h10.8v-.1Z"/><path class="cls-4" d="m69.4,81.5h-4.2c1.1-.6,1.6-1.6,1.6-3.3v-9.4c0-1.5-.2-2-1.2-2.6h5.5l4.1,9.6,4-9.6h5.1c-1,.6-1.2,1.2-1.2,2.6v10c0,1.5.3,2,1.3,2.7h-6.7c1-.6,1.3-1.2,1.3-2.7v-10.7l-5.6,13.6h-.1l-5.8-13.6v9.9c.1,1.9.6,2.9,1.9,3.5Z"/><path class="cls-4" d="m90.1,81.5h-3.8c.8-.5,1.4-1.3,2-2.7l6-12.9h.1l6.4,13.1c.7,1.4,1,1.9,1.8,2.4h-6.9c.6-.4.9-.7.9-1.2,0-.4-.1-.8-.3-1.3l-.9-2h-5.5l-.7,1.6c-.2.4-.3.8-.3,1.2,0,.8.4,1.4,1.2,1.8h0Zm.1-5.1h4.9l-2.5-5.3-2.4,5.3Z"/><path class="cls-4" d="m104.5,81.5h0c1-.7,1.2-1.2,1.2-2.7v-10c0-1.5-.2-2-1.2-2.6h6.5c-1,.6-1.2,1.2-1.2,2.6v5.5l6.3-5.9c.4-.4.6-.7.6-1.1,0-.5-.3-.9-.9-1.1h4.5c-1.5.6-2.5,1.4-3.5,2.4l-2.8,2.6,4.7,7.9c.7,1.1,1.4,1.9,2.3,2.4h-7c.4-.2.6-.4.6-.8s-.2-.9-.6-1.6l-3.1-5-1.1,1v3.8c0,1.5.2,2,1.2,2.6h-6.5Z"/><path class="cls-4" d="m133.5,66.1c.7,0,1.2,0,1.5-.2l.7,4.3h0c-1.3-2.2-2.4-3.5-5.2-3.5h-2.5v6.5h2c1.8,0,2.5-.5,3.2-2.5h0v5.5h0c-.7-2-1.4-2.4-3.2-2.4h-2v7h2.9c2.9,0,4.1-1.7,5.4-3.9h0l-.7,4.5h-12.9c1-.6,1.2-1.2,1.2-2.6v-10c0-1.5-.2-2-1.2-2.6h10.8v-.1Z"/><path class="cls-4" d="m147.4,66.1c3.3,0,5.7,1.2,5.7,4.1,0,2.6-2.4,3.9-5.1,3.9,2.4.1,3.6,1,4.2,2.9l.6,1.7c.5,1.5,1,2.1,2.2,2.7h-5.4c-.5-.6-.8-1.4-1.1-2.4l-.7-2.7c-.4-1.2-.9-2.1-2.5-2.1h-1.4v4.4c0,1.5.2,2,1.2,2.6h-6.5c1-.6,1.2-1.2,1.2-2.6v-10c0-1.5-.2-2-1.2-2.6h8.8v.1Zm-3.5,7.7h1.6c2,0,3.2-1.3,3.2-3.5s-1.1-3.6-3.2-3.6h-1.6v7.1Z"/><path class="cls-4" d="m159.8,68.8c0,1.8,1.6,2.4,3.4,3,2.4.8,5.3,1.6,5.3,5.2,0,3.1-2.7,4.8-5.9,4.8-1.8,0-3.1-.6-4-.6-.6,0-1.1.3-1.5.6l-.4-5.1h0c1.5,2.8,3.7,4.7,5.8,4.7,1.8,0,3-.9,3-2.6,0-2.1-2.2-2.6-4.4-3.4-2.2-.7-4.4-1.6-4.4-4.7,0-2.9,2.3-4.7,5.6-4.7,1.6,0,2.8.6,3.7.6.6,0,1-.3,1.3-.6l.1,4.4h0c-1.3-2.4-2.7-4-5-4-1.5,0-2.6.8-2.6,2.4Z"/><path class="cls-4" d="m32.9,96.6q.1,0,.2.1c.2,1,1.1,1.4,2.1,1.4,1.1,0,2-.6,2-1.6,0-1.2-1.6-1.4-2.5-1.6-1.3-.3-2.6-.9-2.6-2.3,0-1.8,1.4-2.5,3-2.5,1.5,0,2.8.9,3,2.2q0,.1-.1.2l-.6.1q-.1,0-.1-.1c-.2-.9-1.1-1.5-2.1-1.5-1.1,0-2.1.5-2.1,1.6,0,1,1.3,1.3,2.4,1.5,1.3.3,2.7.8,2.7,2.4s-1.3,2.5-3,2.5c-1.5,0-2.8-.7-3.1-2.1q0-.1.1-.2l.7-.1Z"/><path class="cls-4" d="m35.1,99.2c-1.7,0-3-.9-3.2-2.2v-.2c0-.1.1-.1.2-.1l.7-.1c.1,0,.2,0,.3.2h0c.2,1,1.2,1.3,2,1.3.9,0,1.9-.4,1.9-1.5,0-1-1.3-1.3-2.2-1.5h-.2c-1.8-.4-2.7-1.2-2.7-2.4,0-1.6,1.2-2.6,3.2-2.6,1.7,0,2.9.9,3.1,2.3,0,.1,0,.2-.1.2,0,.1-.1.1-.2.1l-.6.1h-.2s-.1-.1-.1-.2c-.1-.8-.9-1.4-1.9-1.4-.5,0-1.9.1-1.9,1.5,0,.9,1.1,1.2,2.3,1.4.7.1,2.8.6,2.8,2.5,0,1.5-1.3,2.6-3.2,2.6Zm-2.9-2.3h0c.2,1.5,1.7,2,2.9,2,1.7,0,2.8-1,2.8-2.4,0-1.2-.8-1.9-2.6-2.3-1-.2-2.5-.5-2.5-1.7,0-1.1.8-1.7,2.2-1.7,1.2,0,2,.6,2.2,1.6l.6-.1c-.2-1.3-1.3-2.1-2.8-2.1-1.8,0-2.9.9-2.9,2.4,0,1.4,1.4,2,2.5,2.2h.2c.9.2,2.4.5,2.4,1.7,0,1.1-.9,1.8-2.2,1.8-.9,0-2.1-.4-2.3-1.5h0l-.5.1Z"/><path class="cls-4" d="m49,94.1q.1,0,.1.1v.6q0,.1-.1.1h-3.6v3h4.5q.1,0,.1.1v.6q0,.1-.1.1h-5.3q-.1,0-.1-.1v-8.4q0-.1.1-.1h5.3q.1,0,.1.1v.6q0,.1-.1.1h-4.5v3h3.6v.2Z"/><path class="cls-4" d="m49.8,99h-5.3c-.2,0-.3-.1-.3-.3v-8.4c0-.2.1-.3.3-.3h5.3c.2,0,.3.1.3.3v.6c0,.2-.1.3-.3.3h-4.3v2.7h3.5c.2,0,.3.1.3.3v.6c0,.2-.1.3-.3.3h-3.5v2.7h4.3c.2,0,.3.1.3.3v.6c0,.2-.1.3-.3.3Zm-5.2-8.6v8.4h5.3v-.6h-4.6v-3.3h3.8v-.6h-3.8v-3.3h4.6v-.6h-5.3Z"/><path class="cls-4" d="m56.4,90.4q0-.1.1-.1h.7q.1,0,.1.1v7.6h3.9q.1,0,.1.1v.6q0,.1-.1.1h-4.7q-.1,0-.1-.1v-8.3Z"/><path class="cls-4" d="m61.2,99h-4.7c-.2,0-.3-.1-.3-.3v-8.4c0-.2.1-.3.3-.3h.7c.2,0,.3.1.3.3v7.5h3.7c.2,0,.3.1.3.3v.6c-.1.2-.2.3-.3.3Zm-4.7-8.6h0v8.4h4.7v-.6h-4v-7.7l-.7-.1Z"/><path class="cls-4" d="m72,94.1q.1,0,.1.1v.6q0,.1-.1.1h-3.6v3h4.5q.1,0,.1.1v.6q0,.1-.1.1h-5.3q-.1,0-.1-.1v-8.4q0-.1.1-.1h5.3q.1,0,.1.1v.6q0,.1-.1.1h-4.5v3h3.6v.2Z"/><path class="cls-4" d="m72.9,99h-5.3c-.2,0-.3-.1-.3-.3v-8.4c0-.2.1-.3.3-.3h5.3c.2,0,.3.1.3.3v.6c0,.2-.1.3-.3.3h-4.3v2.7h3.5c.2,0,.3.1.3.3v.6c0,.2-.1.3-.3.3h-3.5v2.7h4.3c.2,0,.3.1.3.3v.6c-.1.2-.2.3-.3.3Zm-5.3-8.6v8.4h5.3v-.6h-4.6v-3.3h3.8v-.6h-3.8v-3.3h4.6v-.6h-5.3Z"/><path class="cls-4" d="m86.8,92.8q-.1,0-.2-.1c-.5-1.1-1.6-1.8-3.1-1.8-2.2,0-3.4,1.4-3.4,3.6s1.3,3.6,3.4,3.6c1.5,0,2.6-.6,3.1-1.8,0-.1.1-.1.2-.1l.5.3c.1,0,.1.1.1.2-.7,1.5-2.2,2.3-3.9,2.3-2.5,0-4.4-1.6-4.4-4.5s1.9-4.5,4.4-4.5c1.8,0,3.2.8,3.9,2.3q0,.1-.1.2l-.5.3Z"/><path class="cls-4" d="m83.5,99.2c-2.7,0-4.5-1.8-4.5-4.6s1.8-4.6,4.5-4.6c1.9,0,3.3.9,4,2.3.1.2,0,.3-.1.4l-.6.3c-.2.1-.3-.1-.3-.1-.5-1.1-1.6-1.7-3-1.7-2.1,0-3.3,1.3-3.3,3.5s1.2,3.5,3.3,3.5c1.4,0,2.5-.6,3-1.7,0-.1.1-.1.1-.1h.2l.5.3c.1,0,.2.2.1.4-.5,1.2-2,2.1-3.9,2.1Zm0-9c-2.6,0-4.2,1.7-4.2,4.3s1.7,4.3,4.2,4.3c1.7,0,3.1-.8,3.8-2.2h0l-.5-.3c-.6,1.2-1.7,1.8-3.3,1.8-2.2,0-3.6-1.4-3.6-3.7s1.4-3.7,3.6-3.7c1.5,0,2.7.7,3.2,1.8l.5-.3h0c-.5-1.2-1.9-2-3.7-2Zm3.2,2.5h0Z"/><path class="cls-4" d="m99.1,90.2q.1,0,.1.1v.6q0,.1-.1.1h-2.4v7.6q0,.1-.1.1h-.7q-.1,0-.1-.1v-7.6h-2.4q-.1,0-.1-.1v-.6q0-.1.1-.1h5.7Z"/><path class="cls-4" d="m96.6,99h-.7c-.2,0-.3-.1-.3-.3v-7.5h-2.3c-.2,0-.3-.1-.3-.3v-.6c0-.2.1-.3.3-.3h5.7c.2,0,.3.1.3.3v.6c0,.2-.1.3-.3.3h-2.1v7.5c0,.2-.1.3-.3.3Zm-3.2-8.6v.6h2.5v7.7h.7v-7.7h2.5v-.6h-5.7Z"/><path class="cls-4" d="m106.4,98.7q0,.1-.1.1h-.7q-.1,0-.1-.1v-8.4q0-.1.1-.1h.7q.1,0,.1.1v8.4Z"/><path class="cls-4" d="m106.2,99h-.7c-.2,0-.3-.1-.3-.3v-8.4c0-.2.1-.3.3-.3h.7c.2,0,.3.1.3.3v8.4c0,.2-.1.3-.3.3Zm-.6-8.6v8.4h.7v-8.4h-.7Z"/><path class="cls-4" d="m121.5,94.6c0,2.9-1.9,4.5-4.4,4.5s-4.4-1.5-4.4-4.5,1.9-4.5,4.4-4.5,4.4,1.5,4.4,4.5Zm-.9,0c0-2.3-1.3-3.6-3.4-3.6s-3.4,1.3-3.4,3.6,1.3,3.6,3.4,3.6c2.1,0,3.4-1.4,3.4-3.6Z"/><path class="cls-4" d="m117.2,99.2c-2.7,0-4.5-1.8-4.5-4.6s1.8-4.6,4.5-4.6,4.5,1.8,4.5,4.6-1.8,4.6-4.5,4.6Zm0-9c-2.6,0-4.2,1.7-4.2,4.4s1.6,4.3,4.2,4.3,4.2-1.7,4.2-4.3-1.6-4.4-4.2-4.4Zm0,8.1c-2.2,0-3.6-1.4-3.6-3.7s1.3-3.7,3.6-3.7,3.6,1.4,3.6,3.7c-.1,2.3-1.4,3.7-3.6,3.7Zm0-7.2c-2.1,0-3.3,1.3-3.3,3.5s1.2,3.5,3.3,3.5,3.3-1.3,3.3-3.5-1.2-3.5-3.3-3.5Z"/><path class="cls-4" d="m127.8,90.4q0-.1.1-.1h.7c.1,0,.2,0,.2.1l5.3,7v-7q0-.1.1-.1h.7q.1,0,.1.1v8.4q0,.1-.1.1h-.7c-.1,0-.2,0-.2-.1l-5.3-7v7q0,.1-.1.1h-.7q-.1,0-.1-.1v-8.4Z"/><path class="cls-4" d="m134.9,99h-.7c-.1,0-.3-.1-.3-.2l-5.1-6.7v6.6c0,.2-.1.3-.3.3h-.6c-.2,0-.3-.1-.3-.3v-8.4c0-.2.1-.3.3-.3h.7c.1,0,.2.1.3.2l5.1,6.7v-6.6c0-.2.1-.3.3-.3h.7c.2,0,.3.1.3.3v8.4c-.1.2-.2.3-.4.3Zm-6.3-7.6l5.5,7.3s0,.1.1.1h.7v-8.4h-.7v7.4l-5.5-7.3c0-.1-.1-.1-.1-.1h-.7v8.4h.7v-7.4Z"/><path class="cls-1" d="m111.2.1v.2c.1.3,1.5,4.4,1.4,6.2s-.4,3.8-1.1,5.9l-7.5,25-8.6-24.3c-.7-2.1-1-4.2-.7-6.2.2-2,.6-4.1,1.2-6.1,0-.1.1-.3.1-.4v-.4h-22.6v.4l.4.6c1.1,1.9,2.1,3.7,3.1,5.5.9,1.7,1.7,3.6,2.3,5.5l2.7,7.7-6,18.5-8.7-25c-1.1-3.2-.9-7.3.6-12.3,0-.1.1-.3.1-.4V.2h-22.6v.3l.3.6c.8,1.2,1.7,2.9,2.8,5,1,1.9,1.9,3.9,2.5,5.9l14.7,40.6h3.1L53.3,7.3h1.5l15.5,45.2h3.1l9.7-29.7,10.6,29.7h3.2l-15-45.2h1.5l15,45.2h7.3L122.4,0h-11.2v.1Z"/><path class="cls-2" d="m113.1,49v.6h-.8v3h-.7v-3h-.8v-.6h2.3Z"/><path class="cls-3" d="m113.7,52.6v-3.6h1.2l.6,2.4h0l.6-2.4h1.2v3.6h-.7v-2.7h0l-.7,2.7h-.7l-.7-2.7h0v2.7h-.8Z"/></svg>